<svg xmlns="http://www.w3.org/2000/svg" width="48" height="48" viewBox="0 0 48 48">
    <g data-name="그룹 71284">
        <g data-name="icon">
            <g data-name="그룹 30524">
                <g data-name="그룹 71776">
                    <path data-name="선 453" transform="translate(6.544 10.201)" style="stroke-linecap:round;fill:none;stroke:#111;stroke-width:1.5px" d="M0 0v15.249"/>
                    <path data-name="패스 26075" d="M6.718 44.476H3.2a1.7 1.7 0 0 1-1.7-1.7v-5.381a1.7 1.7 0 0 1 1.7-1.7h3.518z" transform="translate(2.775 -10.948)" style="fill:#fff"/>
                    <path data-name="패스 26076" d="M6.718 44.476H3.2a1.7 1.7 0 0 1-1.7-1.7v-5.381a1.7 1.7 0 0 1 1.7-1.7h3.518z" transform="translate(2.775 -10.948)" style="fill:none;stroke:#111;stroke-width:1.5px"/>
                </g>
                <g data-name="그룹 71775">
                    <path data-name="선 455" transform="translate(41.297 10.201)" style="stroke-linecap:round;fill:none;stroke:#111;stroke-width:1.5px" d="M0 0v15.249"/>
                    <path data-name="패스 26077" d="M57 43.822h3.518a1.7 1.7 0 0 0 1.7-1.7V35.7a1.7 1.7 0 0 0-1.7-1.7H57z" transform="translate(-18.653 -10.293)" style="fill:#fff"/>
                    <path data-name="패스 26078" d="M57 43.822h3.518a1.7 1.7 0 0 0 1.7-1.7V35.7a1.7 1.7 0 0 0-1.7-1.7H57z" transform="translate(-18.653 -10.293)" style="fill:none;stroke:#111;stroke-width:1.5px"/>
                </g>
                <path data-name="패스 26079" d="M33.9 39.353H12.641A5.641 5.641 0 0 1 7 33.713v-6.945a16.268 16.268 0 0 1 32.537 0v6.944a5.641 5.641 0 0 1-5.637 5.641" transform="translate(.651 -1.22)" style="fill:#72dee4"/>
                <path data-name="패스 26080" d="M33.9 39.353H12.641A5.641 5.641 0 0 1 7 33.713v-6.945a16.268 16.268 0 0 1 32.537 0v6.944a5.641 5.641 0 0 1-5.637 5.641z" transform="translate(.651 -1.22)" style="fill:none;stroke:#111;stroke-width:1.5px"/>
                <path data-name="패스 26082" d="M31.531 40.506H19.253a6.753 6.753 0 0 1 0-13.506h12.278a6.753 6.753 0 0 1 0 13.506" transform="translate(-1.472 -7.591)" style="fill:#fff"/>
                <g data-name="그룹 71774">
                    <path data-name="패스 26083" d="M26.219 37.984a1.8 1.8 0 0 0-.718-1.269 2.926 2.926 0 0 0-3.478 0 1.8 1.8 0 0 0-.716 1.269" transform="translate(-4.873 -11.121)" style="stroke-linejoin:round;stroke-linecap:round;fill:none;stroke:#111;stroke-width:1.5px"/>
                    <path data-name="패스 26084" d="M42.219 37.984a1.8 1.8 0 0 0-.718-1.269 2.926 2.926 0 0 0-3.478 0 1.8 1.8 0 0 0-.716 1.269" transform="translate(-11.05 -11.121)" style="stroke-linejoin:round;stroke-linecap:round;fill:none;stroke:#111;stroke-width:1.5px"/>
                </g>
            </g>
        </g>
    </g>
</svg>
